{"title":"The Pagemaster 1994 DVDrip English Klam","uid":8027033,"size":928548391,"categoryP":"video","categoryS":"movies","magnet":"?xt=urn:btih:0c6e4a3929eaed786d177ced35dcf3b3bde3c6a3&amp;dn=The+Pagemaster+1994+DVDrip+English+Klam&amp;tr=udp%3A%2F%2Ftracker.openbittorrent.com%3A80&amp;tr=udp%3A%2F%2Fopen.demonii.com%3A1337&amp;tr=udp%3A%2F%2Ftracker.coppersurfer.tk%3A6969&amp;tr=udp%3A%2F%2Fexodus.desync.com%3A6969","seeders":1,"leechers":0,"uploader":"Klambake","files":-1,"time":1358333100,"description":"With: Macaulay Culkin, Christopher Lloyd and the voice of Patrick Stewart\n\nTyler weet zo veel af van ongelukken dat hij altijd bang is om ook maar iets te doen waarbij hij zich zou kunnen bezeren. Terwijl hij rondzwerft in een oude bibliotheek, komt hij op mysterieuze wijze terecht in de wereld van boeken. Nu moet hij zien te ontsnappen uit de wereld waarin horror, fantasie en avontuur regeert.\n\nA cowardly boy who buries himself in accident statistics enters a library to escape a storm only to be transformed into an animated illustration by the Pagemaster. He has to work through obstacles from classic books to return to real life. \n &lt;a href=&quot;\nhttp://www.imdb.com/title/tt0110763&quot; rel=&quot;nofollow&quot; target=&quot;_NEW&quot;&gt;\nhttp://www.imdb.com/title/tt0110763&lt;/a&gt;\t\n\n------------------------ Dutch Friends ------------------------\n---------------------------------------------------------------\n- Bezoek ook eens mijn vrienden op: &lt;a href=&quot; http://www.Film-Test.nl&quot; rel=&quot;nofollow&quot; target=&quot;_NEW&quot;&gt; http://www.Film-Test.nl&lt;/a&gt; --\n----- voor mijn Nederlandse Sync. ondertitels ---- en meer ----\n------- http://www.Film-Test.nl ---- Over Films en meer -------\n---------------------------------------------------------------\n\nGeneral:\n\nComplete name                    : The PagemasterThe Pagemaster.avi\nFormat                           : AVI\nFormat/Info                      : Audio Video Interleave\nFile size                        : 885 MiB\nDuration                         : 1h 15mn\nOverall bit rate                 : 1 641 Kbps\n\nVideo:\n\nFormat                           : MPEG-4 Visual\nFormat profile                   : Simple@L1\nFormat settings, BVOP            : No\nFormat settings, QPel            : No\nFormat settings, GMC             : No warppoints\nFormat settings, Matrix          : Default (H.263)\nCodec ID                         : DX50\nCodec ID/Hint                    : DivX 5\nDuration                         : 1h 15mn\nBit rate                         : 1 500 Kbps\nWidth                            : 720 pixels\nHeight                           : 480 pixels\nDisplay aspect ratio             : 4:3\nFrame rate                       : 23.976 fps\nStandard                         : NTSC\nColor space                      : YUV\nChroma subsampling               : 4:2:0\nBit depth                        : 8 bits\nScan type                        : Progressive\nCompression mode                 : Lossy\nBits/(Pixel*Frame)               : 0.181\nStream size                      : 809 MiB (91%)\nWriting library                  : Lavc51.40.4\n\nAudio:\n\nFormat                           : MPEG Audio\nFormat version                   : Version 1\nFormat profile                   : Layer 3\nMode                             : Joint stereo\nMode extension                   : MS Stereo\nCodec ID                         : 55\nCodec ID/Hint                    : MP3\nDuration                         : 1h 15mn\nBit rate mode                    : Constant\nBit rate                         : 128 Kbps\nChannel(s)                       : 2 channels\nSampling rate                    : 48.0 KHz\nCompression mode                 : Lossy\nDelay relative to video          : 24ms\nStream size                      : 69.0 MiB (8%)\nAlignment                        : Split accross interleaves\nInterleave, duration             : 24 ms (0.58 video frame)\nWriting library                  : LAME3.96.1","torrent":{"xt":"urn:btih:0c6e4a3929eaed786d177ced35dcf3b3bde3c6a3","amp;dn":"The+Pagemaster+1994+DVDrip+English+Klam","amp;tr":["udp%3A%2F%2Ftracker.openbittorrent.com%3A80","udp%3A%2F%2Fopen.demonii.com%3A1337","udp%3A%2F%2Ftracker.coppersurfer.tk%3A6969","udp%3A%2F%2Fexodus.desync.com%3A6969"],"infoHash":"0c6e4a3929eaed786d177ced35dcf3b3bde3c6a3","infoHashBuffer":{"type":"Buffer","data":[12,110,74,57,41,234,237,120,109,23,124,237,53,220,243,179,189,227,198,163]},"announce":[],"urlList":[]}}